<svg width="20" height="20" viewBox="0 0 20 20" fill="none" xmlns="http://www.w3.org/2000/svg">
<path d="M15.2 18C15.2 18.4418 15.5582 18.8 16 18.8C16.4418 18.8 16.8 18.4418 16.8 18H15.2ZM3.2 18C3.2 18.4418 3.55817 18.8 4 18.8C4.44183 18.8 4.8 18.4418 4.8 18H3.2ZM3.73005 18.455L4.09324 17.7422L3.73005 18.455ZM1.54497 16.27L2.25777 15.9068L1.54497 16.27ZM18.455 16.27L17.7422 15.9068L18.455 16.27ZM16.27 18.455L15.9068 17.7422L16.27 18.455ZM16.27 1.54497L15.9068 2.25777L16.27 1.54497ZM18.455 3.73005L17.7422 4.09324L18.455 3.73005ZM3.73005 1.54497L4.09324 2.25777L3.73005 1.54497ZM1.54497 3.73005L2.25777 4.09324L1.54497 3.73005ZM12.2 7C12.2 8.21503 11.215 9.2 10 9.2V10.8C12.0987 10.8 13.8 9.09868 13.8 7H12.2ZM10 9.2C8.78497 9.2 7.8 8.21503 7.8 7H6.2C6.2 9.09868 7.90132 10.8 10 10.8V9.2ZM7.8 7C7.8 5.78497 8.78497 4.8 10 4.8V3.2C7.90132 3.2 6.2 4.90132 6.2 7H7.8ZM10 4.8C11.215 4.8 12.2 5.78497 12.2 7H13.8C13.8 4.90132 12.0987 3.2 10 3.2V4.8ZM8 13.8H12V12.2H8V13.8ZM15.2 17V18H16.8V17H15.2ZM4.8 18V17H3.2V18H4.8ZM12 13.8C13.7673 13.8 15.2 15.2327 15.2 17H16.8C16.8 14.349 14.651 12.2 12 12.2V13.8ZM8 12.2C5.34903 12.2 3.2 14.349 3.2 17H4.8C4.8 15.2327 6.23269 13.8 8 13.8V12.2ZM9 1.8H11V0.2H9V1.8ZM18.2 9V11H19.8V9H18.2ZM11 18.2H9V19.8H11V18.2ZM1.8 11V9H0.2V11H1.8ZM9 18.2C7.58667 18.2 6.57478 18.1994 5.78116 18.1345C4.99687 18.0705 4.49644 17.9477 4.09324 17.7422L3.36686 19.1678C4.03321 19.5074 4.76763 19.6571 5.65086 19.7292C6.52476 19.8006 7.61307 19.8 9 19.8V18.2ZM0.2 11C0.2 12.3869 0.199378 13.4752 0.270778 14.3491C0.342941 15.2324 0.492638 15.9668 0.832162 16.6331L2.25777 15.9068C2.05233 15.5036 1.92954 15.0031 1.86546 14.2188C1.80062 13.4252 1.8 12.4133 1.8 11H0.2ZM4.09324 17.7422C3.30296 17.3396 2.66044 16.697 2.25777 15.9068L0.832162 16.6331C1.38823 17.7245 2.27552 18.6118 3.36686 19.1678L4.09324 17.7422ZM18.2 11C18.2 12.4133 18.1994 13.4252 18.1345 14.2188C18.0705 15.0031 17.9477 15.5036 17.7422 15.9068L19.1678 16.6331C19.5074 15.9668 19.6571 15.2324 19.7292 14.3491C19.8006 13.4752 19.8 12.3869 19.8 11H18.2ZM11 19.8C12.3869 19.8 13.4752 19.8006 14.3491 19.7292C15.2324 19.6571 15.9668 19.5074 16.6331 19.1678L15.9068 17.7422C15.5036 17.9477 15.0031 18.0705 14.2188 18.1345C13.4252 18.1994 12.4133 18.2 11 18.2V19.8ZM17.7422 15.9068C17.3396 16.697 16.697 17.3396 15.9068 17.7422L16.6331 19.1678C17.7245 18.6118 18.6118 17.7245 19.1678 16.6331L17.7422 15.9068ZM11 1.8C12.4133 1.8 13.4252 1.80062 14.2188 1.86546C15.0031 1.92954 15.5036 2.05233 15.9068 2.25777L16.6331 0.832162C15.9668 0.492638 15.2324 0.342941 14.3491 0.270778C13.4752 0.199378 12.3869 0.2 11 0.2V1.8ZM19.8 9C19.8 7.61307 19.8006 6.52476 19.7292 5.65086C19.6571 4.76763 19.5074 4.03321 19.1678 3.36686L17.7422 4.09324C17.9477 4.49644 18.0705 4.99687 18.1345 5.78116C18.1994 6.57478 18.2 7.58667 18.2 9H19.8ZM15.9068 2.25777C16.697 2.66044 17.3396 3.30296 17.7422 4.09324L19.1678 3.36686C18.6118 2.27552 17.7245 1.38823 16.6331 0.832162L15.9068 2.25777ZM9 0.2C7.61307 0.2 6.52476 0.199378 5.65086 0.270778C4.76763 0.342941 4.03321 0.492638 3.36686 0.832162L4.09324 2.25777C4.49644 2.05233 4.99687 1.92954 5.78116 1.86546C6.57478 1.80062 7.58667 1.8 9 1.8V0.2ZM1.8 9C1.8 7.58667 1.80062 6.57478 1.86546 5.78116C1.92954 4.99687 2.05233 4.49644 2.25777 4.09324L0.832162 3.36686C0.492638 4.03321 0.342941 4.76763 0.270778 5.65086C0.199378 6.52476 0.2 7.61307 0.2 9H1.8ZM3.36686 0.832162C2.27551 1.38823 1.38823 2.27551 0.832162 3.36686L2.25777 4.09324C2.66044 3.30296 3.30296 2.66044 4.09324 2.25777L3.36686 0.832162Z" fill="#404040"/>
</svg>
