<svg width="76" height="20" viewBox="0 0 76 20" fill="none" xmlns="http://www.w3.org/2000/svg">
<g clip-path="url(#clip0_235_95)">
<path d="M12.5785 9.0042C12.5588 6.86515 14.3749 5.82449 14.458 5.77604C13.4294 4.31395 11.8352 4.11418 11.275 4.09825C9.93606 3.96087 8.63728 4.87941 7.95522 4.87941C7.25954 4.87941 6.20922 4.11152 5.07721 4.13409C3.62051 4.15599 2.25774 4.97829 1.51033 6.25522C-0.032138 8.85886 1.11825 12.685 2.59605 14.7895C3.33529 15.8202 4.1991 16.9711 5.32975 16.9306C6.43589 16.8861 6.84908 16.243 8.18393 16.243C9.50654 16.243 9.89454 16.9306 11.0476 16.9047C12.2348 16.8861 12.9822 15.8694 13.6956 14.8294C14.5499 13.648 14.8929 12.4846 14.9065 12.4248C14.8786 12.4155 12.601 11.568 12.5785 9.0042Z" fill="black"/>
<path d="M10.4003 2.7138C10.9952 1.9884 11.4023 1.0015 11.2893 0C10.4282 0.0371663 9.35134 0.580724 8.73122 1.2902C8.18257 1.91539 7.69247 2.94012 7.81908 3.90379C8.78635 3.97414 9.7795 3.42793 10.4003 2.7138Z" fill="black"/>
<path d="M28.5859 16.7835H27.04L26.1932 14.1891H23.2499L22.4433 16.7835H20.9382L23.8544 7.95117H25.6555L28.5859 16.7835ZM25.938 13.1007L25.1722 10.7944C25.0912 10.5588 24.9394 10.0039 24.7154 9.13054H24.6882C24.599 9.50618 24.4554 10.061 24.258 10.7944L23.5058 13.1007H25.938Z" fill="black"/>
<path d="M36.0864 13.5219C36.0864 14.6051 35.7862 15.4612 35.1858 16.0897C34.6481 16.6492 33.9803 16.9286 33.1832 16.9286C32.3228 16.9286 31.7047 16.6273 31.3283 16.0247H31.3011V19.3796H29.8498V12.5125C29.8498 11.8315 29.8314 11.1327 29.796 10.4159H31.0723L31.1533 11.4254H31.1806C31.6645 10.6648 32.399 10.2852 33.3847 10.2852C34.1552 10.2852 34.7985 10.5818 35.3131 11.1758C35.8291 11.7705 36.0864 12.5523 36.0864 13.5219ZM34.6079 13.5737C34.6079 12.9538 34.465 12.4428 34.1777 12.0406C33.8639 11.6212 33.4425 11.4114 32.9143 11.4114C32.5563 11.4114 32.2309 11.5282 31.9402 11.7585C31.6489 11.9908 31.4583 12.2941 31.3691 12.6698C31.3242 12.845 31.3017 12.9883 31.3017 13.1012V14.1631C31.3017 14.6263 31.4474 15.0172 31.7387 15.3365C32.0301 15.6557 32.4086 15.815 32.8742 15.815C33.4208 15.815 33.8462 15.6092 34.1505 15.1991C34.4554 14.7883 34.6079 14.2467 34.6079 13.5737Z" fill="black"/>
<path d="M43.6004 13.5219C43.6004 14.6051 43.3002 15.4612 42.6991 16.0897C42.162 16.6492 41.4943 16.9286 40.6972 16.9286C39.8368 16.9286 39.2187 16.6273 38.8429 16.0247H38.8157V19.3796H37.3644V12.5125C37.3644 11.8315 37.3461 11.1327 37.3107 10.4159H38.587L38.668 11.4254H38.6952C39.1785 10.6648 39.913 10.2852 40.8993 10.2852C41.6692 10.2852 42.3125 10.5818 42.8284 11.1758C43.3424 11.7705 43.6004 12.5523 43.6004 13.5219ZM42.1219 13.5737C42.1219 12.9538 41.9782 12.4428 41.691 12.0406C41.3772 11.6212 40.9572 11.4114 40.4283 11.4114C40.0696 11.4114 39.7449 11.5282 39.4535 11.7585C39.1622 11.9908 38.9723 12.2941 38.8831 12.6698C38.8388 12.845 38.8157 12.9883 38.8157 13.1012V14.1631C38.8157 14.6263 38.9614 15.0172 39.2513 15.3365C39.5427 15.655 39.9212 15.815 40.3881 15.815C40.9347 15.815 41.3602 15.6092 41.6644 15.1991C41.9694 14.7883 42.1219 14.2467 42.1219 13.5737Z" fill="black"/>
<path d="M51.9988 14.3059C51.9988 15.0572 51.7313 15.6684 51.1942 16.1403C50.604 16.656 49.7824 16.9135 48.7266 16.9135C47.7519 16.9135 46.9704 16.7303 46.3789 16.3633L46.7152 15.184C47.3523 15.5596 48.0514 15.7481 48.8131 15.7481C49.3597 15.7481 49.7851 15.6273 50.0908 15.387C50.395 15.1468 50.5468 14.8242 50.5468 14.4221C50.5468 14.0637 50.4216 13.7617 50.1704 13.5168C49.9206 13.2719 49.5033 13.0442 48.9206 12.8339C47.3346 12.2571 46.5423 11.4122 46.5423 10.3012C46.5423 9.57516 46.82 8.97984 47.3761 8.51659C47.9302 8.05267 48.6695 7.82104 49.5939 7.82104C50.4182 7.82104 51.103 7.96108 51.6496 8.24049L51.2868 9.39398C50.7762 9.12319 50.199 8.9878 49.553 8.9878C49.0425 8.9878 48.6436 9.11058 48.3577 9.35482C48.1161 9.57317 47.9949 9.83931 47.9949 10.1546C47.9949 10.5037 48.1331 10.7924 48.4108 11.0193C48.6525 11.2291 49.0915 11.456 49.7286 11.7009C50.508 12.0069 51.0805 12.3646 51.4488 12.7748C51.8157 13.1836 51.9988 13.6953 51.9988 14.3059Z" fill="black"/>
<path d="M56.7927 11.4762H55.1931V14.5683C55.1931 15.3547 55.4749 15.7476 56.0399 15.7476C56.2992 15.7476 56.5143 15.7257 56.6845 15.6819L56.7246 16.7564C56.4388 16.8606 56.0623 16.9131 55.596 16.9131C55.0229 16.9131 54.575 16.7425 54.2517 16.402C53.9297 16.0609 53.7677 15.4888 53.7677 14.6851V11.4748H52.8147V10.4129H53.7677V9.24684L55.1931 8.82739V10.4129H56.7927V11.4762Z" fill="black"/>
<path d="M64.0146 13.5472C64.0146 14.5261 63.7274 15.3298 63.1542 15.9583C62.5531 16.6054 61.7554 16.928 60.7609 16.928C59.8024 16.928 59.0394 16.618 58.4703 15.9981C57.9012 15.3783 57.6167 14.5958 57.6167 13.6527C57.6167 12.6658 57.9094 11.8574 58.4968 11.2289C59.0829 10.5997 59.8739 10.2852 60.8684 10.2852C61.8268 10.2852 62.5981 10.5951 63.1801 11.2156C63.7369 11.8176 64.0146 12.5948 64.0146 13.5472ZM62.5089 13.593C62.5089 13.0056 62.3802 12.5019 62.1195 12.0817C61.8153 11.5734 61.3803 11.3198 60.8167 11.3198C60.2333 11.3198 59.7902 11.574 59.4859 12.0817C59.2252 12.5025 59.0965 13.0142 59.0965 13.6195C59.0965 14.2069 59.2252 14.7106 59.4859 15.1301C59.7997 15.6384 60.2381 15.892 60.8037 15.892C61.3578 15.892 61.7928 15.6331 62.1066 15.1168C62.3741 14.6887 62.5089 14.1797 62.5089 13.593Z" fill="black"/>
<path d="M68.7257 11.6603C68.5821 11.6344 68.4289 11.6212 68.2683 11.6212C67.7577 11.6212 67.3629 11.809 67.0852 12.1853C66.8435 12.5171 66.7224 12.9366 66.7224 13.443V16.7846H65.2718L65.2854 12.4216C65.2854 11.6875 65.267 11.0192 65.231 10.4166H66.495L66.5481 11.6351H66.5883C66.7414 11.2163 66.9831 10.8792 67.3139 10.6263C67.6372 10.3986 67.9864 10.2852 68.3629 10.2852C68.497 10.2852 68.6181 10.2944 68.7257 10.311V11.6603Z" fill="black"/>
<path d="M75.2219 13.2958C75.2219 13.5493 75.2049 13.763 75.1688 13.9375H70.815C70.832 14.5667 71.0424 15.0479 71.4467 15.3797C71.8136 15.6764 72.2881 15.8251 72.8708 15.8251C73.5154 15.8251 74.1035 15.7248 74.6324 15.5237L74.8598 16.506C74.2417 16.7688 73.512 16.8996 72.6699 16.8996C71.6571 16.8996 70.862 16.6089 70.2834 16.0281C69.7062 15.4474 69.4169 14.6676 69.4169 13.6893C69.4169 12.729 69.6858 11.9292 70.2242 11.2914C70.7878 10.6105 71.5495 10.27 72.5079 10.27C73.4493 10.27 74.162 10.6105 74.646 11.2914C75.0292 11.8323 75.2219 12.5013 75.2219 13.2958ZM73.838 12.9287C73.8476 12.5093 73.7529 12.1469 73.5562 11.841C73.305 11.4474 72.9191 11.2509 72.3997 11.2509C71.9253 11.2509 71.5393 11.4427 71.2446 11.8277C71.0029 12.1336 70.8593 12.5007 70.815 12.9281H73.838V12.9287Z" fill="black"/>
<path d="M25.4602 2.51647C25.4602 3.29763 25.2199 3.88565 24.74 4.28054C24.2955 4.6449 23.6638 4.82742 22.8456 4.82742C22.4399 4.82742 22.0928 4.81016 21.8021 4.77565V0.507497C22.1813 0.447766 22.5897 0.417236 23.0308 0.417236C23.8102 0.417236 24.3976 0.582494 24.7938 0.913008C25.2376 1.28666 25.4602 1.82093 25.4602 2.51647ZM24.708 2.53572C24.708 2.02933 24.5705 1.64107 24.2955 1.37029C24.0205 1.10017 23.6189 0.964776 23.09 0.964776C22.8654 0.964776 22.6741 0.979377 22.5155 1.00991V4.25466C22.6033 4.26793 22.764 4.27391 22.9974 4.27391C23.5434 4.27391 23.9647 4.1259 24.2615 3.8299C24.5583 3.5339 24.708 3.1025 24.708 2.53572Z" fill="black"/>
<path d="M29.4523 3.19784C29.4523 3.67901 29.3113 4.07324 29.0295 4.38251C28.7341 4.70042 28.3427 4.85904 27.854 4.85904C27.3829 4.85904 27.0079 4.70705 26.7281 4.40176C26.449 4.09713 26.3094 3.71286 26.3094 3.2496C26.3094 2.76511 26.4531 2.36757 26.7417 2.05895C27.0303 1.75034 27.4183 1.5957 27.9071 1.5957C28.3781 1.5957 28.7566 1.74769 29.0431 2.05232C29.3154 2.34832 29.4523 2.7306 29.4523 3.19784ZM28.7123 3.2204C28.7123 2.9317 28.6483 2.68414 28.5211 2.47774C28.3713 2.22819 28.1582 2.10342 27.8812 2.10342C27.5946 2.10342 27.3768 2.22819 27.227 2.47774C27.0991 2.68414 27.0358 2.93568 27.0358 3.23301C27.0358 3.52171 27.0997 3.76927 27.227 3.97567C27.3816 4.22522 27.5967 4.34999 27.8744 4.34999C28.1467 4.34999 28.3604 4.22323 28.5142 3.96904C28.6463 3.75865 28.7123 3.5091 28.7123 3.2204Z" fill="black"/>
<path d="M34.7963 1.66064L33.7923 4.78925H33.1388L32.7229 3.43069C32.6174 3.09155 32.5316 2.7544 32.4649 2.4199H32.4519C32.39 2.76369 32.3042 3.10018 32.194 3.43069L31.7522 4.78925H31.0912L30.1471 1.66064H30.8802L31.243 3.14796C31.3308 3.49971 31.403 3.83487 31.4608 4.15212H31.4738C31.5269 3.89062 31.6147 3.55745 31.7386 3.1546L32.194 1.66131H32.7753L33.2116 3.12274C33.3171 3.47914 33.4029 3.82226 33.4689 4.15278H33.4887C33.537 3.83089 33.6098 3.48777 33.7065 3.12274L34.0958 1.66131H34.7963V1.66064Z" fill="black"/>
<path d="M38.4925 4.79002H37.7791V2.99807C37.7791 2.44588 37.564 2.16979 37.1324 2.16979C36.9207 2.16979 36.7499 2.24545 36.6171 2.39743C36.4858 2.54942 36.419 2.72861 36.419 2.93369V4.78935H35.7057V2.55539C35.7057 2.28063 35.6968 1.98263 35.6798 1.66008H36.3067L36.3401 2.14922H36.3598C36.4429 1.99723 36.5668 1.8718 36.7294 1.77158C36.9228 1.65477 37.1392 1.5957 37.3761 1.5957C37.6756 1.5957 37.9248 1.68995 38.1228 1.8791C38.3693 2.11072 38.4925 2.4565 38.4925 2.91577V4.79002Z" fill="black"/>
<path d="M40.4599 4.78999H39.7472V0.22583H40.4599V4.78999Z" fill="black"/>
<path d="M44.6577 3.19784C44.6577 3.67901 44.5168 4.07324 44.235 4.38251C43.9396 4.70042 43.5475 4.85904 43.0594 4.85904C42.5877 4.85904 42.2126 4.70705 41.9335 4.40176C41.6544 4.09713 41.5149 3.71286 41.5149 3.2496C41.5149 2.76511 41.6585 2.36757 41.9471 2.05895C42.2358 1.75034 42.6238 1.5957 43.1118 1.5957C43.5835 1.5957 43.9613 1.74769 44.2486 2.05232C44.5209 2.34832 44.6577 2.7306 44.6577 3.19784ZM43.9171 3.2204C43.9171 2.9317 43.8531 2.68414 43.7258 2.47774C43.5767 2.22819 43.363 2.10342 43.0866 2.10342C42.7994 2.10342 42.5816 2.22819 42.4325 2.47774C42.3045 2.68414 42.2412 2.93568 42.2412 3.23301C42.2412 3.52171 42.3052 3.76927 42.4325 3.97567C42.587 4.22522 42.8021 4.34999 43.0798 4.34999C43.3521 4.34999 43.5652 4.22323 43.719 3.96904C43.8517 3.75865 43.9171 3.5091 43.9171 3.2204Z" fill="black"/>
<path d="M48.1133 4.78802H47.4728L47.4197 4.42764H47.3999C47.1808 4.71502 46.8683 4.85904 46.4626 4.85904C46.1597 4.85904 45.9147 4.76413 45.7302 4.57564C45.5627 4.40441 45.479 4.19137 45.479 3.93851C45.479 3.55623 45.6424 3.26487 45.9712 3.06311C46.2992 2.86135 46.7608 2.76246 47.355 2.76711V2.7087C47.355 2.29655 47.1331 2.09081 46.6886 2.09081C46.3721 2.09081 46.093 2.16846 45.852 2.32244L45.707 1.86582C46.0052 1.68596 46.3734 1.5957 46.8077 1.5957C47.6464 1.5957 48.067 2.0271 48.067 2.88989V4.04204C48.067 4.35464 48.0827 4.60352 48.1133 4.78802ZM47.3727 3.71286V3.23036C46.5858 3.21708 46.1924 3.42747 46.1924 3.86086C46.1924 4.02412 46.2373 4.14624 46.3292 4.22787C46.4211 4.30951 46.5382 4.34999 46.6777 4.34999C46.8343 4.34999 46.9806 4.30154 47.114 4.20531C47.2481 4.10841 47.3305 3.98563 47.3611 3.83497C47.3686 3.80113 47.3727 3.75998 47.3727 3.71286Z" fill="black"/>
<path d="M52.1694 4.78999H51.5363L51.5029 4.28758H51.4832C51.281 4.66986 50.9366 4.861 50.4526 4.861C50.066 4.861 49.744 4.713 49.4888 4.417C49.2335 4.12099 49.1062 3.73672 49.1062 3.26484C49.1062 2.75845 49.2444 2.34829 49.5221 2.03503C49.791 1.74301 50.1204 1.597 50.5125 1.597C50.9434 1.597 51.245 1.73837 51.4165 2.02176H51.4301V0.22583H52.1442V3.94711C52.1442 4.25174 52.1523 4.53248 52.1694 4.78999ZM51.4301 3.47058V2.94893C51.4301 2.85867 51.4233 2.78566 51.4104 2.72991C51.3702 2.56266 51.2838 2.42196 51.1524 2.30847C51.0196 2.19498 50.8597 2.1379 50.6752 2.1379C50.4091 2.1379 50.2008 2.24078 50.0476 2.44718C49.8958 2.65359 49.8189 2.91707 49.8189 3.23896C49.8189 3.54823 49.8917 3.79911 50.0381 3.99224C50.1926 4.19798 50.4009 4.30085 50.6616 4.30085C50.8958 4.30085 51.083 4.21524 51.2252 4.04334C51.3627 3.88472 51.4301 3.69358 51.4301 3.47058Z" fill="black"/>
<path d="M58.2677 3.19784C58.2677 3.67901 58.1268 4.07324 57.845 4.38251C57.5495 4.70042 57.1588 4.85904 56.6694 4.85904C56.199 4.85904 55.824 4.70705 55.5435 4.40176C55.2644 4.09713 55.1249 3.71286 55.1249 3.2496C55.1249 2.76511 55.2685 2.36757 55.5571 2.05895C55.8457 1.75034 56.2337 1.5957 56.7232 1.5957C57.1935 1.5957 57.5727 1.74769 57.8586 2.05232C58.1309 2.34832 58.2677 2.7306 58.2677 3.19784ZM57.5284 3.2204C57.5284 2.9317 57.4644 2.68414 57.3372 2.47774C57.1867 2.22819 56.9743 2.10342 56.6966 2.10342C56.4107 2.10342 56.1929 2.22819 56.0425 2.47774C55.9145 2.68414 55.8512 2.93568 55.8512 3.23301C55.8512 3.52171 55.9152 3.76927 56.0425 3.97567C56.197 4.22522 56.4121 4.34999 56.6898 4.34999C56.9621 4.34999 57.1765 4.22323 57.3304 3.96904C57.4617 3.75865 57.5284 3.5091 57.5284 3.2204Z" fill="black"/>
<path d="M62.1036 4.79002H61.3909V2.99807C61.3909 2.44588 61.1758 2.16979 60.7436 2.16979C60.5319 2.16979 60.361 2.24545 60.229 2.39743C60.0969 2.54942 60.0309 2.72861 60.0309 2.93369V4.78935H59.3168V2.55539C59.3168 2.28063 59.3086 1.98263 59.2916 1.66008H59.9179L59.9512 2.14922H59.971C60.0547 1.99723 60.1786 1.8718 60.3406 1.77158C60.5346 1.65477 60.7504 1.5957 60.9879 1.5957C61.2868 1.5957 61.5359 1.68995 61.734 1.8791C61.9811 2.11072 62.1036 2.4565 62.1036 2.91577V4.79002Z" fill="black"/>
<path d="M66.905 2.18028H66.1194V3.70012C66.1194 4.08639 66.259 4.27952 66.5354 4.27952C66.6633 4.27952 66.7695 4.2689 66.8532 4.247L66.8716 4.77463C66.7307 4.82639 66.5456 4.85228 66.3175 4.85228C66.0357 4.85228 65.8165 4.76865 65.6579 4.6014C65.4986 4.43416 65.4197 4.15275 65.4197 3.75786V2.18028H64.9507V1.65929H65.4197V1.08587L66.1188 0.880127V1.65863H66.9043V2.18028H66.905Z" fill="black"/>
<path d="M70.6838 4.78999H69.9697V3.01131C69.9697 2.4505 69.7546 2.16976 69.3237 2.16976C68.9929 2.16976 68.7669 2.33236 68.643 2.65757C68.6219 2.72593 68.6097 2.80955 68.6097 2.90778V4.78932H67.897V0.22583H68.6097V2.11136H68.6233C68.8479 1.76823 69.1699 1.597 69.5872 1.597C69.8826 1.597 70.127 1.69124 70.321 1.8804C70.5626 2.116 70.6838 2.46643 70.6838 2.92968V4.78999Z" fill="black"/>
<path d="M74.5797 3.07779C74.5797 3.20256 74.5702 3.30742 74.5532 3.39304H72.4138C72.4233 3.70231 72.5254 3.93792 72.7235 4.10119C72.9045 4.2472 73.138 4.3202 73.4239 4.3202C73.7404 4.3202 74.0291 4.27109 74.2891 4.1722L74.4007 4.65536C74.0965 4.78412 73.7384 4.8485 73.3239 4.8485C72.8269 4.8485 72.4355 4.7058 72.1524 4.42042C71.8678 4.13503 71.7269 3.75209 71.7269 3.27158C71.7269 2.7997 71.8583 2.4068 72.1231 2.09354C72.3995 1.75904 72.7732 1.5918 73.2449 1.5918C73.7064 1.5918 74.057 1.75904 74.2939 2.09354C74.4851 2.35902 74.5797 2.68754 74.5797 3.07779ZM73.899 2.89793C73.9045 2.69152 73.8575 2.51365 73.7609 2.36366C73.637 2.17053 73.4484 2.07363 73.1932 2.07363C72.9604 2.07363 72.7704 2.16787 72.6255 2.35702C72.507 2.50768 72.4369 2.68754 72.4138 2.89793H73.899Z" fill="black"/>
</g>
<defs>
<clipPath id="clip0_235_95">
<rect width="74.4444" height="20" fill="white" transform="translate(0.777832)"/>
</clipPath>
</defs>
</svg>
