<svg width="20" height="18" viewBox="0 0 20 18" fill="none" xmlns="http://www.w3.org/2000/svg">
<path d="M1.00183 13.2032L5.57299 8.91772C6.77791 7.78811 8.66924 7.84489 9.80422 9.04473L16.5018 16.1251M12.9999 12.1253L15.1967 10.2944C15.9913 9.63207 17.16 9.68508 17.8915 10.4166L18.9999 11.5252M19.0018 13V5C19.0018 2.79086 17.211 1 15.0018 1L5.00183 1C2.79269 1 1.00183 2.79086 1.00183 5L1.00183 13C1.00183 15.2091 2.79269 17 5.00183 17H15.0018C17.211 17 19.0018 15.2091 19.0018 13ZM15.3143 6.1255C15.3143 7.23007 14.4189 8.1255 13.3143 8.1255C12.2098 8.1255 11.3143 7.23007 11.3143 6.1255C11.3143 5.02093 12.2098 4.1255 13.3143 4.1255C14.4189 4.1255 15.3143 5.02093 15.3143 6.1255Z" stroke="#404040" stroke-width="1.6" stroke-linecap="round"/>
</svg>
