<svg width="84" height="20" viewBox="0 0 84 20" fill="none" xmlns="http://www.w3.org/2000/svg">
<g clip-path="url(#clip0_235_124)">
<path d="M27.4656 3.48366C27.4656 4.06227 27.2882 4.52569 26.9386 4.8713C26.5367 5.28101 26.0133 5.48716 25.3719 5.48716C24.7588 5.48716 24.2354 5.27754 23.806 4.86437C23.3757 4.44513 23.161 3.93061 23.161 3.31475C23.161 2.69888 23.3757 2.18437 23.806 1.76859C24.2354 1.35195 24.7588 1.14233 25.3719 1.14233C25.6771 1.14233 25.9681 1.20383 26.2457 1.31817C26.5225 1.43338 26.7479 1.58929 26.9111 1.78158L26.5403 2.14712C26.2555 1.81883 25.8678 1.65685 25.3719 1.65685C24.9247 1.65685 24.537 1.8093 24.2079 2.1168C23.8823 2.42517 23.719 2.82448 23.719 3.31475C23.719 3.80501 23.8823 4.20779 24.2079 4.51616C24.537 4.82019 24.9247 4.97611 25.3719 4.97611C25.8465 4.97611 26.2457 4.82019 26.5607 4.51269C26.7683 4.30914 26.8863 4.02849 26.9173 3.66989H25.3719V3.16923H27.4337C27.4585 3.2775 27.4656 3.38231 27.4656 3.48366Z" fill="black" stroke="black" stroke-width="0.0852868" stroke-miterlimit="10"/>
<path d="M30.731 1.74334H28.7943V3.05996H30.5402V3.56061H28.7943V4.87723H30.731V5.38742H28.246V1.23315H30.731V1.74334Z" fill="black" stroke="black" stroke-width="0.0852868" stroke-miterlimit="10"/>
<path d="M33.0459 5.38742H32.4976V1.74334H31.3097V1.23315H34.2347V1.74334H33.0459V5.38742Z" fill="black" stroke="black" stroke-width="0.0852868" stroke-miterlimit="10"/>
<path d="M36.35 5.38693V1.23267H36.8974V5.38693H36.35Z" fill="black" stroke="black" stroke-width="0.0852868" stroke-miterlimit="10"/>
<path d="M39.3252 5.38742H38.7814V1.74334H37.589V1.23315H40.5176V1.74334H39.3252V5.38742Z" fill="black" stroke="black" stroke-width="0.0852868" stroke-miterlimit="10"/>
<path d="M46.0577 4.85744C45.6381 5.27754 45.1182 5.48716 44.4981 5.48716C43.8744 5.48716 43.3545 5.27754 42.9349 4.85744C42.5161 4.4382 42.3076 3.92368 42.3076 3.31475C42.3076 2.70581 42.5161 2.19129 42.9349 1.77206C43.3545 1.35195 43.8744 1.14233 44.4981 1.14233C45.1147 1.14233 45.6346 1.35195 46.0542 1.77552C46.4765 2.19822 46.685 2.70928 46.685 3.31475C46.685 3.92368 46.4765 4.4382 46.0577 4.85744ZM43.3403 4.50923C43.6561 4.82019 44.0403 4.97611 44.4981 4.97611C44.9523 4.97611 45.34 4.82019 45.6523 4.50923C45.9672 4.19826 46.1269 3.79895 46.1269 3.31475C46.1269 2.83055 45.9672 2.43123 45.6523 2.12027C45.34 1.8093 44.9523 1.65339 44.4981 1.65339C44.0403 1.65339 43.6561 1.8093 43.3403 2.12027C43.0253 2.43123 42.8657 2.83055 42.8657 3.31475C42.8657 3.79895 43.0253 4.19826 43.3403 4.50923Z" fill="black" stroke="black" stroke-width="0.0852868" stroke-miterlimit="10"/>
<path d="M47.4506 5.38742V1.23315H48.1159L50.1849 4.46406H50.2088L50.1849 3.66542V1.23315H50.7323V5.38742H50.1609L47.9944 1.99714H47.9704L47.9944 2.79923V5.38742H47.4506Z" fill="black" stroke="black" stroke-width="0.0852868" stroke-miterlimit="10"/>
<path d="M42.1707 11.4593C40.5037 11.4593 39.1419 12.698 39.1419 14.407C39.1419 16.1021 40.5037 17.3538 42.1707 17.3538C43.8413 17.3538 45.2031 16.1021 45.2031 14.407C45.2031 12.698 43.8413 11.4593 42.1707 11.4593ZM42.1707 16.1931C41.2561 16.1931 40.4691 15.4559 40.4691 14.407C40.4691 13.3442 41.2561 12.62 42.1707 12.62C43.0854 12.62 43.8759 13.3442 43.8759 14.407C43.8759 15.4559 43.0854 16.1931 42.1707 16.1931ZM35.5621 11.4593C33.8916 11.4593 32.5333 12.698 32.5333 14.407C32.5333 16.1021 33.8916 17.3538 35.5621 17.3538C37.2318 17.3538 38.591 16.1021 38.591 14.407C38.591 12.698 37.2318 11.4593 35.5621 11.4593ZM35.5621 16.1931C34.6466 16.1931 33.857 15.4559 33.857 14.407C33.857 13.3442 34.6466 12.62 35.5621 12.62C36.4768 12.62 37.2637 13.3442 37.2637 14.407C37.2637 15.4559 36.4768 16.1931 35.5621 16.1931ZM27.6981 12.3628V13.6153H30.7616C30.672 14.3152 30.4324 14.8297 30.0651 15.1883C29.618 15.6214 28.9216 16.1021 27.6981 16.1021C25.8129 16.1021 24.3366 14.6166 24.3366 12.7759C24.3366 10.9353 25.8129 9.44976 27.6981 9.44976C28.7175 9.44976 29.4592 9.83868 30.0066 10.3428L30.9106 9.46015C30.145 8.74641 29.1265 8.19811 27.6981 8.19811C25.1129 8.19811 22.9402 10.2519 22.9402 12.7759C22.9402 15.3 25.1129 17.3538 27.6981 17.3538C29.0955 17.3538 30.145 16.9068 30.9701 16.0683C31.8156 15.2429 32.079 14.0822 32.079 13.1449C32.079 12.8539 32.0542 12.5862 32.0099 12.3628H27.6981ZM59.855 13.3338C59.6057 12.6746 58.8365 11.4593 57.2697 11.4593C55.7171 11.4593 54.4245 12.6538 54.4245 14.407C54.4245 16.058 55.7038 17.3538 57.4188 17.3538C58.8054 17.3538 59.6057 16.5283 59.9348 16.0476L58.9057 15.378C58.5623 15.8683 58.0948 16.1931 57.4188 16.1931C56.7472 16.1931 56.2654 15.8925 55.9567 15.3L59.9942 13.669L59.855 13.3338ZM55.7384 14.3152C55.7038 13.1787 56.6425 12.5966 57.315 12.5966C57.8419 12.5966 58.2891 12.8539 58.4381 13.222L55.7384 14.3152ZM52.4567 17.1745H53.784V8.51254H52.4567V17.1745ZM50.2831 12.1159H50.2388C49.9407 11.7712 49.372 11.4593 48.6516 11.4593C47.1399 11.4593 45.7576 12.7552 45.7576 14.4165C45.7576 16.0683 47.1399 17.3538 48.6516 17.3538C49.372 17.3538 49.9407 17.0393 50.2388 16.6842H50.2831V17.1069C50.2831 18.2338 49.6666 18.8393 48.672 18.8393C47.8611 18.8393 47.3581 18.2676 47.1505 17.7869L45.9963 18.2572C46.329 19.0385 47.2099 20 48.672 20C50.2281 20 51.5412 19.1061 51.5412 16.9311V11.6386H50.2831V12.1159ZM48.7652 16.1931C47.8505 16.1931 47.0848 15.4456 47.0848 14.4165C47.0848 13.3779 47.8505 12.62 48.7652 12.62C49.6666 12.62 50.3772 13.3779 50.3772 14.4165C50.3772 15.4456 49.6666 16.1931 48.7652 16.1931ZM66.0688 8.51254H62.8944V17.1745H64.2181V13.8925H66.0688C67.5388 13.8925 68.9805 12.8539 68.9805 11.2021C68.9805 9.5511 67.5353 8.51254 66.0688 8.51254ZM66.1034 12.6876H64.2181V9.71742H66.1034C67.0917 9.71742 67.6559 10.5186 67.6559 11.2021C67.6559 11.8725 67.0917 12.6876 66.1034 12.6876ZM74.2859 11.4429C73.3295 11.4429 72.3349 11.8552 71.926 12.769L73.1006 13.2498C73.3534 12.769 73.8183 12.6131 74.3098 12.6131C74.9965 12.6131 75.6929 13.0159 75.7036 13.727V13.818C75.464 13.6828 74.9512 13.4828 74.3205 13.4828C73.0553 13.4828 71.7663 14.1627 71.7663 15.4317C71.7663 16.5924 72.8025 17.3399 73.9674 17.3399C74.8581 17.3399 75.3496 16.9475 75.6583 16.491H75.7036V17.1606H76.982V13.8379C76.982 12.3021 75.8074 11.4429 74.2859 11.4429ZM74.1262 16.1896C73.6932 16.1896 73.0899 15.98 73.0899 15.4559C73.0899 14.7855 73.8423 14.5283 74.4935 14.5283C75.0763 14.5283 75.3496 14.6539 75.7036 14.8193C75.5998 15.6214 74.8927 16.1896 74.1262 16.1896ZM81.6397 11.6326L80.1182 15.3875H80.073L78.5 11.6326H77.0725L79.436 16.88L78.0874 19.7999H79.4706L83.1124 11.6326H81.6397ZM69.708 17.1745H71.0352V8.51254H69.708V17.1745Z" fill="black"/>
<path d="M1.21806 1.6061C1.00957 1.81918 0.888916 2.15094 0.888916 2.58057V17.9053C0.888916 18.3349 1.00957 18.6667 1.21806 18.8797L1.26952 18.9265L10.065 10.3425V10.1398L1.26952 1.55586L1.21806 1.6061Z" fill="url(#paint0_linear_235_124)"/>
<path d="M12.9915 13.207L10.0629 10.3443V10.1416L12.995 7.2788L13.0607 7.31605L16.5331 9.24506C17.5241 9.7925 17.5241 10.6933 16.5331 11.2442L13.0607 13.1698L12.9915 13.207Z" fill="url(#paint1_linear_235_124)"/>
<path d="M13.0589 13.1748L10.0611 10.2479L1.21411 18.8865C1.54326 19.2243 2.08 19.265 2.69038 18.9272L13.0589 13.1748Z" fill="url(#paint2_linear_235_124)"/>
<path d="M13.059 7.32387L2.6905 1.57147C2.08012 1.23712 1.54338 1.27783 1.21423 1.61565L10.0612 10.2507L13.059 7.32387Z" fill="url(#paint3_linear_235_124)"/>
</g>
<defs>
<linearGradient id="paint0_linear_235_124" x1="9.28411" y1="18.0649" x2="-2.34201" y2="6.15704" gradientUnits="userSpaceOnUse">
<stop stop-color="#00A0FF"/>
<stop offset="0.0066" stop-color="#00A1FF"/>
<stop offset="0.2601" stop-color="#00BEFF"/>
<stop offset="0.5122" stop-color="#00D2FF"/>
<stop offset="0.7604" stop-color="#00DFFF"/>
<stop offset="1" stop-color="#00E3FF"/>
</linearGradient>
<linearGradient id="paint1_linear_235_124" x1="17.8235" y1="10.2419" x2="0.649861" y2="10.2419" gradientUnits="userSpaceOnUse">
<stop stop-color="#FFE000"/>
<stop offset="0.4087" stop-color="#FFBD00"/>
<stop offset="0.7754" stop-color="#FFA500"/>
<stop offset="1" stop-color="#FF9C00"/>
</linearGradient>
<linearGradient id="paint2_linear_235_124" x1="11.4288" y1="8.65685" x2="-4.33719" y2="-7.49113" gradientUnits="userSpaceOnUse">
<stop stop-color="#FF3A44"/>
<stop offset="1" stop-color="#C31162"/>
</linearGradient>
<linearGradient id="paint3_linear_235_124" x1="-1.01274" y1="23.9877" x2="6.02747" y2="16.777" gradientUnits="userSpaceOnUse">
<stop stop-color="#32A071"/>
<stop offset="0.0685" stop-color="#2DA771"/>
<stop offset="0.4762" stop-color="#15CF74"/>
<stop offset="0.8009" stop-color="#06E775"/>
<stop offset="1" stop-color="#00F076"/>
</linearGradient>
<clipPath id="clip0_235_124">
<rect width="65.7778" height="16" fill="white" transform="matrix(1.25 0 0 -1.25 0.888916 20)"/>
</clipPath>
</defs>
</svg>
