<svg width="12" height="14" viewBox="0 0 12 14" fill="none" xmlns="http://www.w3.org/2000/svg">
<path d="M5.99944 0.142578C7.89299 0.142578 9.42801 1.6776 9.42801 3.57115L9.42919 4.727C9.91081 4.75684 10.2181 4.84112 10.5348 5.01051C10.9137 5.21318 11.2146 5.51399 11.4172 5.89294C11.6373 6.30453 11.7137 6.70009 11.7137 7.48305V11.0878C11.7137 11.8708 11.6373 12.2663 11.4172 12.6779C11.2146 13.0569 10.9137 13.3577 10.5348 13.5604C10.1232 13.7805 9.72765 13.8569 8.94468 13.8569H3.0542C2.27124 13.8569 1.87568 13.7805 1.46409 13.5604C1.08514 13.3577 0.784326 13.0569 0.581663 12.6779C0.361542 12.2663 0.285156 11.8708 0.285156 11.0878V7.48305C0.285156 6.70009 0.361542 6.30453 0.581663 5.89294C0.784326 5.51399 1.08514 5.21318 1.46409 5.01051C1.78096 4.84105 2.08832 4.75678 2.57027 4.72696L2.57087 3.57115C2.57087 1.6776 4.10589 0.142578 5.99944 0.142578ZM8.94468 5.85686H3.0542C2.44377 5.85686 2.22645 5.89883 2.00306 6.0183C1.82328 6.11445 1.6856 6.25213 1.58945 6.43191C1.46998 6.6553 1.42801 6.87262 1.42801 7.48305V11.0878C1.42801 11.6983 1.46998 11.9156 1.58945 12.139C1.6856 12.3187 1.82328 12.4564 2.00306 12.5526C2.22645 12.672 2.44377 12.714 3.0542 12.714H8.94468C9.55512 12.714 9.77244 12.672 9.99582 12.5526C10.1756 12.4564 10.3133 12.3187 10.4094 12.139C10.5289 11.9156 10.5709 11.6983 10.5709 11.0878V7.48305C10.5709 6.87262 10.5289 6.6553 10.4094 6.43191C10.3133 6.25213 10.1756 6.11445 9.99582 6.0183C9.77244 5.89883 9.55512 5.85686 8.94468 5.85686ZM5.99944 7.57115C6.31503 7.57115 6.57087 7.82699 6.57087 8.14258V9.85686C6.57087 10.1725 6.31503 10.4283 5.99944 10.4283C5.68385 10.4283 5.42801 10.1725 5.42801 9.85686V8.14258C5.42801 7.82699 5.68385 7.57115 5.99944 7.57115ZM5.99944 1.28544C4.73708 1.28544 3.71373 2.30878 3.71373 3.57115V4.71401H8.28516V3.57115C8.28516 2.30878 7.26181 1.28544 5.99944 1.28544Z" fill="black"/>
</svg>
