<svg width="20" height="20" viewBox="0 0 20 20" fill="none" xmlns="http://www.w3.org/2000/svg">
<path d="M13.9962 11.9345L13.9968 11.9805C13.9978 12.6176 13.6924 13.2318 13.1411 13.7012L13.143 13.6992C12.5688 14.1934 11.7921 14.5159 10.9466 14.6113L10.9267 14.6133V15.7935C10.9267 15.8482 10.8989 15.9008 10.8493 15.9395C10.7997 15.9782 10.7325 16 10.6624 16H9.49569C9.42313 15.9994 9.35378 15.9765 9.30247 15.9364C9.25116 15.8964 9.22196 15.8422 9.22113 15.7855V14.6133C8.83546 14.5731 8.45651 14.5003 8.09089 14.3963L8.12865 14.4058C7.58253 14.2631 7.07011 14.0512 6.61186 13.7787L6.62466 13.7862C6.48469 13.7071 6.35031 13.6222 6.2221 13.5317L6.22658 13.5347C6.15533 13.4814 6.10541 13.4413 6.07682 13.4147C6.03055 13.3787 6.00323 13.3305 6.00027 13.2796C5.99731 13.2287 6.01891 13.1787 6.06082 13.1396L6.94274 12.236C6.96619 12.2124 6.99588 12.1931 7.02979 12.1793C7.0637 12.1654 7.10103 12.1575 7.13922 12.156C7.17717 12.1506 7.21694 12.1533 7.25304 12.164C7.28913 12.1747 7.32081 12.1928 7.34466 12.2165L7.36194 12.23C7.9406 12.644 8.6488 12.9314 9.41505 13.0631L9.44449 13.0676C9.63521 13.1016 9.85409 13.1211 10.0787 13.1211L10.1184 13.1216C10.5606 13.1216 10.9702 13.0136 11.3075 12.8296L11.3005 12.8331C11.4706 12.7432 11.6084 12.6208 11.7007 12.4775C11.793 12.3342 11.8368 12.1748 11.8278 12.0145V12.0165C11.8278 11.885 11.7798 11.7625 11.6973 11.659L11.6992 11.662C11.6212 11.5587 11.5249 11.4646 11.4131 11.3824C11.2644 11.2849 11.1001 11.2016 10.9254 11.1354L10.9114 11.1304C10.6827 11.039 10.4949 10.9675 10.3482 10.9159C10.2014 10.8642 9.97292 10.7917 9.66273 10.6983C9.44001 10.627 9.26423 10.5712 9.13537 10.5308C9.00652 10.4905 8.83073 10.4313 8.60801 10.3533C8.38529 10.2753 8.20673 10.2061 8.07233 10.1458C7.93793 10.0854 7.77644 10.0063 7.58786 9.90824C7.42265 9.82507 7.26812 9.72961 7.12642 9.6232C6.99781 9.52153 6.87669 9.4152 6.76226 9.30366L6.75394 9.29566C6.63274 9.18087 6.53218 9.05368 6.45506 8.91761L6.44994 8.90711C6.3756 8.769 6.31672 8.62611 6.27394 8.48006L6.26946 8.46206C6.22049 8.2944 6.19602 8.12296 6.1965 7.95099V7.92399C6.1965 7.29891 6.51714 6.73184 7.03746 6.31879C7.61743 5.84767 8.37468 5.53464 9.19937 5.42468L9.22241 5.42218V4.21253C9.22241 4.15402 9.25377 4.10101 9.30369 4.06351C9.32836 4.04343 9.35798 4.02745 9.39075 4.01653C9.42352 4.00562 9.45879 4 9.49441 4H10.6637C10.8096 4 10.928 4.09251 10.928 4.20653V5.39317C11.28 5.42218 11.6013 5.47668 11.9091 5.55469L11.8752 5.54719C12.169 5.6172 12.416 5.69371 12.6534 5.78272L12.6202 5.77172C12.8301 5.85323 13.0086 5.93674 13.1776 6.02975L13.1648 6.02275C13.3355 6.11676 13.4468 6.18144 13.4989 6.21678C13.5509 6.25212 13.5938 6.28329 13.6275 6.31029C13.6736 6.34126 13.7033 6.38442 13.7111 6.43149C13.7189 6.47856 13.7042 6.52622 13.6698 6.56532L12.9779 7.54294C12.9606 7.57301 12.9332 7.59884 12.8986 7.61769C12.864 7.63654 12.8235 7.64769 12.7814 7.64996C12.7408 7.65656 12.6981 7.65576 12.6579 7.6476C12.6178 7.63945 12.5805 7.62417 12.5491 7.60295C12.5321 7.58962 12.4913 7.56295 12.4256 7.52294C12.3599 7.48294 12.2485 7.42376 12.0915 7.34542C11.9392 7.26912 11.7808 7.20047 11.6173 7.13989L11.5904 7.13089C11.3934 7.06012 11.1886 7.00338 10.9786 6.96137L10.9517 6.95687C10.7131 6.90584 10.4669 6.87994 10.2195 6.87986C9.74556 6.8629 9.2765 6.96527 8.88257 7.1719L8.89089 7.1679C8.67301 7.28101 8.51085 7.44867 8.43107 7.64333C8.35128 7.83799 8.35861 8.04806 8.45185 8.23903L8.44929 8.23303C8.50817 8.34304 8.59393 8.43605 8.70145 8.51056L8.70273 8.51106C8.80577 8.58657 8.91585 8.65908 9.03105 8.72659L9.04129 8.73209C9.17889 8.8061 9.33697 8.87561 9.50273 8.93362L9.52193 8.93962C9.73612 9.01763 9.90892 9.07797 10.0403 9.12064C10.1717 9.16331 10.3718 9.22465 10.6406 9.30466C10.9436 9.39401 11.175 9.46435 11.335 9.51569C11.495 9.56703 11.7122 9.64521 11.9866 9.75022C12.2177 9.83502 12.4404 9.93313 12.6528 10.0438L12.6342 10.0348C12.8326 10.1448 13.0054 10.2548 13.1699 10.3723L13.1661 10.3693C13.3434 10.4903 13.4944 10.6303 13.6147 10.7868L13.6205 10.7948C13.7267 10.9414 13.8182 11.1119 13.8848 11.2904L13.8906 11.3074C13.9603 11.4899 14 11.7 14 11.917V11.938L13.9962 11.9345Z" fill="black"/>
<path fill-rule="evenodd" clip-rule="evenodd" d="M10 18.4C14.6392 18.4 18.4 14.6392 18.4 10C18.4 5.36081 14.6392 1.6 10 1.6C5.36081 1.6 1.6 5.36081 1.6 10C1.6 14.6392 5.36081 18.4 10 18.4ZM10 20C15.5228 20 20 15.5228 20 10C20 4.47715 15.5228 0 10 0C4.47715 0 0 4.47715 0 10C0 15.5228 4.47715 20 10 20Z" fill="black"/>
</svg>
