<svg width="20" height="20" viewBox="0 0 20 20" fill="none" xmlns="http://www.w3.org/2000/svg">
<mask id="path-1-inside-1_222_80" fill="white">
<path fill-rule="evenodd" clip-rule="evenodd" d="M14.8427 8.44421C16.0357 9.13837 16.0357 10.8616 14.8427 11.5558L8.37769 15.3176C7.1777 16.0159 5.67241 15.1502 5.67241 13.7618L5.67241 6.23817C5.67241 4.84982 7.1777 3.98414 8.37769 4.68238L14.8427 8.44421ZM14.038 10.1729C14.1706 10.0957 14.1706 9.90427 14.038 9.82714L7.573 6.06531C7.43967 5.98772 7.27241 6.08391 7.27241 6.23817L7.27241 13.7618C7.27241 13.9161 7.43967 14.0123 7.573 13.9347L14.038 10.1729Z"/>
<path fill-rule="evenodd" clip-rule="evenodd" d="M10 18.4C14.6392 18.4 18.4 14.6392 18.4 10C18.4 5.36081 14.6392 1.6 10 1.6C5.36081 1.6 1.6 5.36081 1.6 10C1.6 14.6392 5.36081 18.4 10 18.4ZM10 20C15.5228 20 20 15.5228 20 10C20 4.47715 15.5228 0 10 0C4.47715 0 0 4.47715 0 10C0 15.5228 4.47715 20 10 20Z"/>
</mask>
<path fill-rule="evenodd" clip-rule="evenodd" d="M14.8427 8.44421C16.0357 9.13837 16.0357 10.8616 14.8427 11.5558L8.37769 15.3176C7.1777 16.0159 5.67241 15.1502 5.67241 13.7618L5.67241 6.23817C5.67241 4.84982 7.1777 3.98414 8.37769 4.68238L14.8427 8.44421ZM14.038 10.1729C14.1706 10.0957 14.1706 9.90427 14.038 9.82714L7.573 6.06531C7.43967 5.98772 7.27241 6.08391 7.27241 6.23817L7.27241 13.7618C7.27241 13.9161 7.43967 14.0123 7.573 13.9347L14.038 10.1729Z" fill="black"/>
<path fill-rule="evenodd" clip-rule="evenodd" d="M10 18.4C14.6392 18.4 18.4 14.6392 18.4 10C18.4 5.36081 14.6392 1.6 10 1.6C5.36081 1.6 1.6 5.36081 1.6 10C1.6 14.6392 5.36081 18.4 10 18.4ZM10 20C15.5228 20 20 15.5228 20 10C20 4.47715 15.5228 0 10 0C4.47715 0 0 4.47715 0 10C0 15.5228 4.47715 20 10 20Z" fill="black"/>
<path d="M14.8427 11.5558L14.038 10.1729L14.8427 11.5558ZM14.8427 8.44421L15.6474 7.06129L14.8427 8.44421ZM8.37769 15.3176L9.18237 16.7005H9.18238L8.37769 15.3176ZM5.67241 13.7618H4.07241H5.67241ZM5.67241 6.23817H7.27241H5.67241ZM8.37769 4.68238L7.573 6.06531L8.37769 4.68238ZM14.038 9.82714L14.8427 8.44421H14.8427L14.038 9.82714ZM14.038 10.1729L13.2333 8.78994V8.78994L14.038 10.1729ZM7.573 6.06531L8.37769 4.68238L8.37768 4.68238L7.573 6.06531ZM7.27241 6.23817H8.87241H7.27241ZM7.27241 13.7618H5.67241H7.27241ZM7.573 13.9347L8.37768 15.3176L8.37769 15.3176L7.573 13.9347ZM15.6474 12.9387C17.9008 11.6275 17.9008 8.37247 15.6474 7.06129L14.038 9.82714C14.1706 9.90426 14.1706 10.0957 14.038 10.1729L15.6474 12.9387ZM9.18238 16.7005L15.6474 12.9387L14.038 10.1729L7.573 13.9347L9.18238 16.7005ZM4.07241 13.7618C4.07241 16.3843 6.91573 18.0194 9.18237 16.7005L7.573 13.9347C7.52883 13.9604 7.497 13.9649 7.4728 13.9645C7.44367 13.9641 7.40817 13.9556 7.37271 13.9352C7.33724 13.9148 7.31206 13.8884 7.29703 13.8634C7.28454 13.8427 7.27241 13.8129 7.27241 13.7618H4.07241ZM4.07241 6.23817L4.07241 13.7618H7.27241L7.27241 6.23817H4.07241ZM9.18237 3.29946C6.91572 1.98055 4.07241 3.61574 4.07241 6.23817H7.27241C7.27241 6.18707 7.28454 6.15731 7.29703 6.13657C7.31206 6.11161 7.33724 6.08519 7.37271 6.0648C7.40817 6.0444 7.44367 6.03592 7.4728 6.03549C7.497 6.03512 7.52883 6.0396 7.573 6.06531L9.18237 3.29946ZM15.6474 7.06129L9.18237 3.29946L7.573 6.06531L14.038 9.82714L15.6474 7.06129ZM13.2333 11.2101C12.3055 10.6702 12.3055 9.32984 13.2333 8.78994L14.8427 11.5558C16.0357 10.8616 16.0357 9.13837 14.8427 8.44421L13.2333 11.2101ZM6.76831 7.44823L13.2333 11.2101L14.8427 8.44421L8.37769 4.68238L6.76831 7.44823ZM8.87241 6.23817C8.87241 7.318 7.70164 7.99131 6.76831 7.44823L8.37768 4.68238C7.1777 3.98414 5.67241 4.84982 5.67241 6.23817H8.87241ZM8.87241 13.7618L8.87241 6.23817H5.67241L5.67241 13.7618H8.87241ZM6.76831 12.5518C7.70164 12.0087 8.87241 12.682 8.87241 13.7618H5.67241C5.67241 15.1502 7.17769 16.0159 8.37768 15.3176L6.76831 12.5518ZM13.2333 8.78994L6.76831 12.5518L8.37769 15.3176L14.8427 11.5558L13.2333 8.78994ZM16.8 10C16.8 13.7555 13.7555 16.8 10 16.8V20C15.5228 20 20 15.5228 20 10H16.8ZM10 3.2C13.7555 3.2 16.8 6.24446 16.8 10H20C20 4.47715 15.5228 0 10 0V3.2ZM3.2 10C3.2 6.24446 6.24446 3.2 10 3.2V0C4.47715 0 0 4.47715 0 10H3.2ZM10 16.8C6.24446 16.8 3.2 13.7555 3.2 10H0C0 15.5228 4.47715 20 10 20V16.8ZM18.4 10C18.4 14.6392 14.6392 18.4 10 18.4V21.6C16.4065 21.6 21.6 16.4065 21.6 10H18.4ZM10 1.6C14.6392 1.6 18.4 5.36081 18.4 10H21.6C21.6 3.5935 16.4065 -1.6 10 -1.6V1.6ZM1.6 10C1.6 5.36081 5.36081 1.6 10 1.6V-1.6C3.5935 -1.6 -1.6 3.5935 -1.6 10H1.6ZM10 18.4C5.36081 18.4 1.6 14.6392 1.6 10H-1.6C-1.6 16.4065 3.5935 21.6 10 21.6V18.4Z" fill="#404040" mask="url(#path-1-inside-1_222_80)"/>
</svg>
